<svg xmlns="http://www.w3.org/2000/svg" viewBox="0 0 611.2 198.43"><path d="M222.83 129.55a26.71 26.71 0 0 1-21.89 10.39 27.34 27.34 0 0 1-10.39-1.94 23.4 23.4 0 0 1-13.3-13.41 27.92 27.92 0 0 1-1.88-10.39 28.39 28.39 0 0 1 1.85-10.36 24.19 24.19 0 0 1 5.23-8.25 23.86 23.86 0 0 1 8.1-5.45 27 27 0 0 1 10.39-2 32.36 32.36 0 0 1 11.87 2.14 20.36 20.36 0 0 1 9.19 7.5l-8.62 8.7a16.65 16.65 0 0 0-4.94-4.5 12.64 12.64 0 0 0-6.56-1.69 14 14 0 0 0-5.52 1 11.31 11.31 0 0 0-4.09 2.88 12.66 12.66 0 0 0-2.55 4.31 16.62 16.62 0 0 0 0 10.79 12.91 12.91 0 0 0 2.62 4.35 11.69 11.69 0 0 0 4.09 2.87 13.28 13.28 0 0 0 5.34 1 14.07 14.07 0 0 0 7-1.52 18.4 18.4 0 0 0 5.27-4.75zM250 139.86a26.31 26.31 0 0 1-10.21-2 24.84 24.84 0 0 1-8.1-5.38 24.14 24.14 0 0 1-5.35-8.18 29 29 0 0 1 0-20.71 24 24 0 0 1 13.45-13.52 28.19 28.19 0 0 1 20.45 0 24 24 0 0 1 8.11 5.34 24.6 24.6 0 0 1 5.31 8.18 29 29 0 0 1 0 20.71 24 24 0 0 1-13.42 13.56 26.49 26.49 0 0 1-10.24 2zm0-12.23a11.81 11.81 0 0 0 5.12-1.07 11.06 11.06 0 0 0 3.8-2.91 13 13 0 0 0 2.36-4.35 17.78 17.78 0 0 0 0-10.61 13 13 0 0 0-2.36-4.35 11.18 11.18 0 0 0-3.8-2.91 12.78 12.78 0 0 0-10.24 0 11.28 11.28 0 0 0-3.8 2.91 12.84 12.84 0 0 0-2.35 4.35 17.57 17.57 0 0 0 0 10.61 12.84 12.84 0 0 0 2.35 4.35 11.16 11.16 0 0 0 3.8 2.91 11.81 11.81 0 0 0 5.12 1.07zm32.48-38.1h12.46L306.88 111l11.71-21.44h12.53l2.29 49.15h-13.2L319 109.87l-8.63 16.8h-7.14l-9.58-16.8-1 28.81H280.2zm58.61 0h12.45L365.48 111l11.71-21.44h12.53l2.28 49.12h-13.18l-1.18-28.81-8.64 16.8h-7.14l-9.58-16.8-1 28.81H338.8zm56.74 0h13v28.81a11 11 0 0 0 1.88 6.64q1.88 2.58 6.23 2.58c2.89 0 5-.88 6.19-2.62a11.23 11.23 0 0 0 1.84-6.6V89.53h13.23v30a22.33 22.33 0 0 1-1.55 8.51 17.92 17.92 0 0 1-4.38 6.45 19.5 19.5 0 0 1-6.71 4.06 25 25 0 0 1-8.51 1.4 25.22 25.22 0 0 1-8.55-1.4 19.73 19.73 0 0 1-6.74-4 17.74 17.74 0 0 1-4.39-6.41 22.6 22.6 0 0 1-1.54-8.59zm49.69 0h11.86l18.87 27.41V89.53h12.9v49.15H480l-19.61-28.22v28.22h-12.87zm51.37 0h13.05v49.15h-13.05zM532.94 101h-15.11V89.53h43.26V101h-15v37.73h-13.15zm47.68 18.08l-17.47-29.55h15l9.58 17.54 9-17.54h14.47L593.66 119v19.67h-13z" fill="#e50b7e"/><path d="M177.53 150.24h29.52v6.06h-22.76v14.37h17.33v6h-17.33v20.57h-6.76zm34.58 0h6.77v27.47a27.54 27.54 0 0 0 .56 5.81 11.73 11.73 0 0 0 1.94 4.55A8.77 8.77 0 0 0 225 191a14.34 14.34 0 0 0 5.81 1 14.11 14.11 0 0 0 5.74-1 8.87 8.87 0 0 0 3.67-2.92 12 12 0 0 0 1.94-4.55 28.22 28.22 0 0 0 .56-5.81v-27.48h6.76v29.09a24.36 24.36 0 0 1-1.12 7.51 16.91 16.91 0 0 1-3.42 6 16 16 0 0 1-5.81 4.06 24.1 24.1 0 0 1-16.63 0 16.2 16.2 0 0 1-5.85-4.06 16.4 16.4 0 0 1-3.45-6 24.36 24.36 0 0 1-1.13-7.51zm44.54 0h6.83l25.65 36.7v-36.7h6.62v47H289l-25.72-36.78v36.78h-6.62zm45.99 0h15.71a36.15 36.15 0 0 1 10.25 1.37 21.38 21.38 0 0 1 8.07 4.3 20 20 0 0 1 5.28 7.36 26.69 26.69 0 0 1 1.9 10.57 25.86 25.86 0 0 1-1.9 10.32 20.14 20.14 0 0 1-5.28 7.33 21.77 21.77 0 0 1-8.1 4.33 35.85 35.85 0 0 1-10.29 1.41h-15.64zm15.5 40.93q8.81 0 13.7-4.33t4.9-12.86q0-8.59-4.72-13.14t-14.09-4.54h-8.53v34.87zM144 89.48a13.22 13.22 0 0 0-7.88 3.15c.8-9.19-2.61-16-8.91-18.36a16.5 16.5 0 0 0-11.81.52l-5.12-12.33c4.72-11.55 13-25.61 13-37.16 0-8.91-4.5-15.48-13.16-15.48-5.25 0-11 4.3-15.42 9.86C88.66 6.3 82.36 0 75.55 0 64.79 0 60.33 10.77 60.33 19.94c0 7.61 2.09 20.21 10.24 38.06a325.45 325.45 0 0 0-14.7 38.3c-6.55-6.82-17.31-13.64-30.95-13.64a31.61 31.61 0 0 0-17.84 5C2.62 90.8 0 95 0 99.46c0 6.55 4.46 11 11.28 12.86 11.8 3.14 17 12.59 21.51 31.22 8.13 33.58 29.11 53.78 61.38 53.78a62 62 0 0 0 61.9-61.93 72.08 72.08 0 0 0-1.31-13.39 53.15 53.15 0 0 0 2.36-7.87C160 99.71 154.5 89.48 144 89.48" fill="#1d1d1b"/><path d="M124.53 81.58c5.48 2.54 5.9 13.94.39 27.58-4.46 13.13-10.88 21.15-16.86 21.19-4.71 0-8.65-3.34-8.65-12.26 0-16.8 13.8-41.73 25.12-36.51m-56.6-61.64c0-5.5 2.36-12.06 7.62-12.06q5.49 0 13.37 17.31A140 140 0 0 0 75 48c-4.73-12.34-7.09-21.52-7.09-28.09" fill="#fff"/><path d="M94.17 189.46c-27.54 0-46.43-19.16-53.78-47.76-5-19.68-11.28-32.79-27.28-37-1.83-.53-5.24-1.84-5.24-5.25 0-3.69 6-8.93 17.05-8.93 13.07 0 23.87 8 31.21 18.68l5.61-2.09c.83-10.75 6.31-25.45 15.91-46 12.06-26 24.32-43.67 32.46-43.44 2.6.06 5.69 3.14 5.69 7.6 0 10.76-9.49 26.88-17.78 44.43-.83 1.76-4.61 10.08-4.61 10.08l5.42 2.34c1.78-3 5.46-10.17 6-11.37l4.06 9c-8.65 7.36-16.26 24.66-16.26 38.32 0 10 4.46 16.19 11 18.29 6 1.85 11.8.07 16.26-5.18 1.06 6.31 5.25 11.75 13.38 11.75 7.2 0 11.91-4.13 15.49-11.22 1.3 33.06-26 57.73-54.57 57.73" fill="#fff"/><path d="M150 113.09c-1.84 11-8.54 23.29-16.79 23.29-7.87 0-7.4-10.43-5.57-16.73 2.88-11.28 10.56-23.08 16.33-23.08 5.25 0 7.6 7.08 6 16.52" fill="#fff"/><path d="M122.17 168.38c-23.36 13.26-45.08 4.79-53.28-19.4l6.79-3.18c6.68 19.7 25.92 25.1 43.73 15.83zm-6.36-50.55a6.1 6.1 0 1 1-6.09-6.09 6.09 6.09 0 0 1 6.09 6.09m25.66 7.38a5.49 5.49 0 1 1-5.48-5.49 5.48 5.48 0 0 1 5.48 5.49M131.16 25.18a5.47 5.47 0 0 1-2.18-.43 5.37 5.37 0 0 1-1.76-1.19 5.7 5.7 0 0 1-1.22-1.78 5.61 5.61 0 0 1-.43-2.18 5.7 5.7 0 0 1 .43-2.19 5.61 5.61 0 0 1 1.18-1.76 5.53 5.53 0 0 1 1.82-1.19 5.38 5.38 0 0 1 2.2-.45 5.32 5.32 0 0 1 2.18.45 5.5 5.5 0 0 1 2.92 2.95 5.53 5.53 0 0 1 .44 2.19 5.44 5.44 0 0 1-.44 2.18 5.68 5.68 0 0 1-1.17 1.78 5.47 5.47 0 0 1-4 1.62zm0-1.07a4.37 4.37 0 0 0 1.75-.34 4.29 4.29 0 0 0 2.29-2.39 4.89 4.89 0 0 0 0-3.53 4.3 4.3 0 0 0-.91-1.44 4.5 4.5 0 0 0-1.38-1 4.48 4.48 0 0 0-3.47 0 4.59 4.59 0 0 0-1.4 1 4.49 4.49 0 0 0-.92 1.44 5 5 0 0 0 0 3.53 4.34 4.34 0 0 0 .92 1.43 4.08 4.08 0 0 0 1.38 1 4.36 4.36 0 0 0 1.74.3zm-1.93-7.36h2.17a2.44 2.44 0 0 1 .91.15 1.84 1.84 0 0 1 .62.4 1.26 1.26 0 0 1 .36.53 1.54 1.54 0 0 1 .11.59 1.83 1.83 0 0 1-.27 1 1.68 1.68 0 0 1-.83.66l1.38 2.34h-1.22l-1.26-2.19h-.9v2.17h-1.07zm2.13 2.61a1 1 0 0 0 .72-.24.89.89 0 0 0 .22-.64.79.79 0 0 0-.24-.63 1.22 1.22 0 0 0-.77-.2h-1v1.71z" fill="#1d1d1b"/></svg>