<svg xmlns="http://www.w3.org/2000/svg" viewBox="0 0 615.67 334.93"><path d="M222.78 266.1a26.66 26.66 0 0 1-21.88 10.39 27.34 27.34 0 0 1-10.39-1.92 23.61 23.61 0 0 1-8.06-5.3 23.86 23.86 0 0 1-5.23-8.11 27.63 27.63 0 0 1-1.88-10.38 28.39 28.39 0 0 1 1.84-10.36 24.39 24.39 0 0 1 5.23-8.25 23.86 23.86 0 0 1 8.1-5.45 27 27 0 0 1 10.39-1.95 32.26 32.26 0 0 1 11.86 2.13 20.27 20.27 0 0 1 9.21 7.45l-8.62 8.65a16.44 16.44 0 0 0-4.93-4.49 12.67 12.67 0 0 0-6.56-1.7 14.15 14.15 0 0 0-5.52 1 11.31 11.31 0 0 0-4.09 2.88 12.66 12.66 0 0 0-2.55 4.31 16.62 16.62 0 0 0 0 10.79 12.91 12.91 0 0 0 2.62 4.35 12 12 0 0 0 4.09 2.87 13.28 13.28 0 0 0 5.34 1 14.1 14.1 0 0 0 7-1.51 18.68 18.68 0 0 0 5.27-4.75zm27.12 10.32a26.31 26.31 0 0 1-10.21-2 24.81 24.81 0 0 1-8.1-5.37 24.32 24.32 0 0 1-5.34-8.18 28.88 28.88 0 0 1 0-20.71 23.94 23.94 0 0 1 13.44-13.52 28.32 28.32 0 0 1 20.45 0 24 24 0 0 1 8.1 5.34 24.71 24.71 0 0 1 5.31 8.18 29 29 0 0 1 0 20.71 24.71 24.71 0 0 1-5.31 8.18 24.4 24.4 0 0 1-8.1 5.37 26.54 26.54 0 0 1-10.24 2zm0-12.23a11.84 11.84 0 0 0 5.12-1.07 11.15 11.15 0 0 0 3.79-2.91 12.69 12.69 0 0 0 2.36-4.35 17.78 17.78 0 0 0 0-10.61 12.69 12.69 0 0 0-2.36-4.35A11.27 11.27 0 0 0 255 238a12.78 12.78 0 0 0-10.24 0 11.41 11.41 0 0 0-3.8 2.91 12.84 12.84 0 0 0-2.35 4.35 17.57 17.57 0 0 0 0 10.61 12.84 12.84 0 0 0 2.35 4.35 11.28 11.28 0 0 0 3.8 2.91 11.81 11.81 0 0 0 5.14 1.06zm32.53-38.1h12.45l11.93 21.44 11.72-21.44h12.52l2.29 49.15h-13.19L319 246.43l-8.62 16.8h-7.18l-9.58-16.8-.95 28.81h-12.53zm58.57 0h12.45l11.93 21.44 11.72-21.44h12.52l2.29 49.15h-13.17l-1.18-28.81-8.62 16.8h-7.15l-9.58-16.8-.95 28.81h-12.53zm56.74 0h13.05v28.81a11 11 0 0 0 1.87 6.63c1.26 1.72 3.33 2.58 6.23 2.58s5-.87 6.19-2.61a11.2 11.2 0 0 0 1.84-6.6v-28.81h13.19v30a22.4 22.4 0 0 1-1.55 8.51 18 18 0 0 1-4.38 6.45 19.23 19.23 0 0 1-6.71 4 24.91 24.91 0 0 1-8.51 1.4 25.2 25.2 0 0 1-8.54-1.4 19.33 19.33 0 0 1-6.74-4 17.5 17.5 0 0 1-4.39-6.41 22.58 22.58 0 0 1-1.55-8.58zm49.69 0h11.86l18.86 27.41v-27.41H491v49.15h-11.08L460.32 247v28.22h-12.89zm51.36 0h13v49.15h-13zm34.04 11.42h-15.1v-11.42H561v11.42h-15v37.73h-13.17zm47.67 18.13L563 226.09h15l9.57 17.54 9-17.54h14.52l-17.54 29.47v19.68h-13z" fill="#e50b7e"/><path d="M177.49 286.75H207v6.05h-22.75v14.37h17.33v6h-17.33v20.57h-6.76zm34.58 0h6.76v27.47a28.29 28.29 0 0 0 .56 5.81 12.06 12.06 0 0 0 1.94 4.54 8.9 8.9 0 0 0 3.66 2.92 14.19 14.19 0 0 0 5.81 1 14 14 0 0 0 5.75-1 8.9 8.9 0 0 0 3.66-2.92 11.89 11.89 0 0 0 1.93-4.54 27.58 27.58 0 0 0 .57-5.81v-27.47h6.76v29.09a24.34 24.34 0 0 1-1.13 7.5 16.87 16.87 0 0 1-3.41 6.06 16.05 16.05 0 0 1-5.81 4.05 24.1 24.1 0 0 1-16.63 0 16.26 16.26 0 0 1-5.84-4.05 16.68 16.68 0 0 1-3.46-6.06 24.34 24.34 0 0 1-1.12-7.5zm44.52 0h6.84l25.64 36.69v-36.69h6.62v47h-6.76L263.22 297v36.77h-6.63zm45.99 0h15.71a36.13 36.13 0 0 1 10.24 1.37 21.31 21.31 0 0 1 8.07 4.3 20 20 0 0 1 5.28 7.36 26.67 26.67 0 0 1 1.9 10.56 25.79 25.79 0 0 1-1.9 10.32 20.05 20.05 0 0 1-5.28 7.34 21.69 21.69 0 0 1-8.1 4.33 35.85 35.85 0 0 1-10.29 1.41h-15.63zm15.49 40.92q8.81 0 13.7-4.33t4.9-12.86q0-8.6-4.72-13.13t-14.09-4.55h-8.52v34.87zm-100.9-199.48a16.42 16.42 0 0 1-2.4 2.88 21.28 21.28 0 0 1-3.94 3.07 24.67 24.67 0 0 1-5.35 2.43 21.45 21.45 0 0 1-6.69 1 24 24 0 0 1-9.51-1.83 21.83 21.83 0 0 1-7.39-5.1 23.41 23.41 0 0 1-4.83-7.75 28.21 28.21 0 0 1 0-19.4 24.36 24.36 0 0 1 4.83-7.89 22.4 22.4 0 0 1 7.43-5.32 23.27 23.27 0 0 1 9.61-1.93 22.16 22.16 0 0 1 11.87 3.2 20.59 20.59 0 0 1 3.8 3 22.82 22.82 0 0 1 2.57 3.1l-4.79 4.09a26.85 26.85 0 0 0-2-2.5 13.48 13.48 0 0 0-2.78-2.36 15.89 15.89 0 0 0-3.73-1.76 15.35 15.35 0 0 0-4.86-.71 15.42 15.42 0 0 0-12.15 5.5 17.71 17.71 0 0 0-3.27 5.91 22.37 22.37 0 0 0-1.13 7.19 21.73 21.73 0 0 0 1.16 7.14 17.84 17.84 0 0 0 3.28 5.81 14.88 14.88 0 0 0 5.14 3.88 15.82 15.82 0 0 0 6.76 1.41 16.44 16.44 0 0 0 5.46-.81 15.89 15.89 0 0 0 3.87-1.94 15.08 15.08 0 0 0 2.61-2.29c.68-.77 1.25-1.42 1.72-1.94zm6.73-38.74h15a20.67 20.67 0 0 1 7.6 1.24 14.5 14.5 0 0 1 5 3.17 11.62 11.62 0 0 1 2.81 4.4 14.68 14.68 0 0 1 .88 5 15 15 0 0 1-2.11 8 12.64 12.64 0 0 1-6.55 5.14l11 20.07H250l-10.12-19.27h-9.44v19.23h-6.54zm15.56 22q4.44 0 6.65-2.19a7.81 7.81 0 0 0 2.22-5.84 7.69 7.69 0 0 0-2.39-6 9.57 9.57 0 0 0-6.62-2.15h-8.88v16.2zm43.76 26.17a23 23 0 0 1-9.44-1.93 24 24 0 0 1-7.6-5.28 24.27 24.27 0 0 1-5.07-7.86 26.25 26.25 0 0 1 0-19.26 24.61 24.61 0 0 1 5-7.81 23.69 23.69 0 0 1 7.61-5.29 24.2 24.2 0 0 1 18.94 0 24 24 0 0 1 7.64 5.29 24.37 24.37 0 0 1 5.07 7.81 26.12 26.12 0 0 1 0 19.26 24.27 24.27 0 0 1-5.07 7.86 23.85 23.85 0 0 1-7.64 5.28 23.25 23.25 0 0 1-9.44 1.93zm0-6.33a16 16 0 0 0 12.36-5.5 18.11 18.11 0 0 0 3.42-5.88 21.84 21.84 0 0 0 0-14.22 18.11 18.11 0 0 0-3.42-5.88 15.78 15.78 0 0 0-5.35-4 16.61 16.61 0 0 0-7-1.45 16.33 16.33 0 0 0-7 1.45 15.86 15.86 0 0 0-5.32 4 17.91 17.91 0 0 0-3.41 5.88 21.66 21.66 0 0 0 0 14.22 17.91 17.91 0 0 0 3.41 5.88 16.38 16.38 0 0 0 5.32 4 16.05 16.05 0 0 0 6.99 1.5zm29.48-41.84h6.83l25.63 36.69V89.45h6.62v47H345l-25.7-36.76v36.76h-6.6zm46.03 0h29.51v6.06h-22.75v14.37h17.32v6h-17.32v20.57h-6.76zm42.53 0h6.9l18.38 47H419l-4.86-13.1h-19.3L390 136.43h-7.11zm10.85 28.17L404.5 97l-7.68 20.63z" fill="#1d1d1b"/><path d="M202.26 169h20.15v22.14a27.21 27.21 0 0 1-10.12 5.41 40.93 40.93 0 0 1-11.43 1.65 30 30 0 0 1-10.7-1.8 21.58 21.58 0 0 1-13.1-13.27 31.51 31.51 0 0 1-1.72-10.74 27.91 27.91 0 0 1 1.87-10.39 23.59 23.59 0 0 1 13.31-13.49 27 27 0 0 1 10.34-1.92 31.89 31.89 0 0 1 11.43 2 20 20 0 0 1 8.94 6.73l-8.46 8.53a22.61 22.61 0 0 0-4.89-3.75 12.15 12.15 0 0 0-6.07-1.47 13.31 13.31 0 0 0-5.59 1.1 12.07 12.07 0 0 0-4.08 3 13.17 13.17 0 0 0-2.54 4.41 16.59 16.59 0 0 0-.88 5.41 16 16 0 0 0 1 5.7 12.76 12.76 0 0 0 2.65 4.34 11.53 11.53 0 0 0 4.11 2.79 14.34 14.34 0 0 0 5.45 1 18 18 0 0 0 4.63-.59 13.44 13.44 0 0 0 4.27-2.06V179h-8.53zm38.41 8.41l-17.44-29.49h14.93l9.57 17.5 9-17.5h14.49l-17.51 29.42V197h-13zm34.27-29.49h12.43l11.91 21.4 11.7-21.4h12.5l2.28 49.08H312.6l-1.18-28.76-8.6 16.76h-7.14l-9.56-16.77-1 28.76h-12.5zm56.63 0h13v28.76a11 11 0 0 0 1.87 6.62q1.88 2.56 6.22 2.57t6.18-2.61a11.21 11.21 0 0 0 1.84-6.58v-28.76h13.16v29.93a22.54 22.54 0 0 1-1.54 8.5 17.93 17.93 0 0 1-4.38 6.43 19.24 19.24 0 0 1-6.69 4.05 24.89 24.89 0 0 1-8.5 1.4 25.15 25.15 0 0 1-8.53-1.4 19.51 19.51 0 0 1-6.73-4 17.56 17.56 0 0 1-4.38-6.4 22.5 22.5 0 0 1-1.54-8.57zm49.63 0H393l18.82 27.36v-27.36h12.88V197h-11.07l-19.56-28.17V197H381.2zm51.8 0h35.3v11.25H446v7.58h18.31v10.59H446v8.38h23.8V197H433zm43 0h18.83a35.78 35.78 0 0 1 10.48 1.47 23.11 23.11 0 0 1 8.35 4.49 20.33 20.33 0 0 1 5.51 7.72 28.32 28.32 0 0 1 2 11.1 26 26 0 0 1-2 10.63 21.39 21.39 0 0 1-5.56 7.58 23.28 23.28 0 0 1-8.38 4.56A35.24 35.24 0 0 1 494.7 197H476zm18.31 37.58q6.4 0 9.9-3.64a13.13 13.13 0 0 0 3.49-9.45 16.52 16.52 0 0 0-.81-5.33 11 11 0 0 0-2.46-4.12 11.15 11.15 0 0 0-4.16-2.68 16.63 16.63 0 0 0-6-1H489v26.22zm56.29 12.65a26.16 26.16 0 0 1-10.18-2 24.61 24.61 0 0 1-8.09-5.37 24.28 24.28 0 0 1-5.34-8.16A28.92 28.92 0 0 1 527 162a23.95 23.95 0 0 1 13.43-13.49 26.51 26.51 0 0 1 10.18-1.92 26.84 26.84 0 0 1 10.23 1.92 23.91 23.91 0 0 1 8.09 5.33 24.47 24.47 0 0 1 5.29 8.16 28.92 28.92 0 0 1 0 20.67 23.89 23.89 0 0 1-13.38 13.53 26.48 26.48 0 0 1-10.24 1.95zm0-12.21a11.73 11.73 0 0 0 5.11-1.06 11 11 0 0 0 3.79-2.88 12.72 12.72 0 0 0 2.36-4.34 17.92 17.92 0 0 0 0-10.59 12.91 12.91 0 0 0-2.36-4.34 11.12 11.12 0 0 0-3.79-2.9 12.74 12.74 0 0 0-10.22 0 11.22 11.22 0 0 0-3.79 2.9 12.89 12.89 0 0 0-2.35 4.34 17.71 17.71 0 0 0 0 10.59 12.7 12.7 0 0 0 2.35 4.34 11.12 11.12 0 0 0 3.79 2.91 11.79 11.79 0 0 0 5.11 1.03zm29.33-38.02h13v37.58h22.73V197h-35.73z" fill="#e50b7e"/><path fill="#1d1d1b" d="M175.28 214.57v-6.1h440.39v6.1zM144 89.48a13.22 13.22 0 0 0-7.88 3.15c.8-9.19-2.61-16-8.91-18.36a16.5 16.5 0 0 0-11.81.52l-5.12-12.33c4.72-11.55 13-25.61 13-37.16 0-8.91-4.5-15.48-13.16-15.48-5.25 0-11 4.3-15.42 9.86C88.66 6.3 82.36 0 75.55 0 64.79 0 60.33 10.77 60.33 19.94c0 7.61 2.09 20.21 10.24 38.06a325.45 325.45 0 0 0-14.7 38.3c-6.55-6.82-17.31-13.64-30.95-13.64a31.61 31.61 0 0 0-17.84 5C2.62 90.8 0 95 0 99.46c0 6.55 4.46 11 11.28 12.86 11.8 3.14 17 12.59 21.51 31.22 8.13 33.58 29.11 53.78 61.38 53.78a62 62 0 0 0 61.9-61.93 72.08 72.08 0 0 0-1.31-13.39 53.15 53.15 0 0 0 2.36-7.87C160 99.71 154.5 89.48 144 89.48"/><path d="M124.53 81.58c5.48 2.54 5.9 13.94.39 27.58-4.46 13.13-10.88 21.15-16.86 21.19-4.71 0-8.65-3.34-8.65-12.26 0-16.8 13.8-41.73 25.12-36.51m-56.6-61.64c0-5.5 2.36-12.06 7.62-12.06q5.49 0 13.37 17.31A140 140 0 0 0 75 48c-4.73-12.34-7.09-21.52-7.09-28.09" fill="#fff"/><path d="M94.17 189.46c-27.54 0-46.43-19.16-53.78-47.76-5-19.68-11.28-32.79-27.28-37-1.83-.53-5.24-1.84-5.24-5.25 0-3.69 6-8.93 17.05-8.93 13.07 0 23.87 8 31.21 18.68l5.61-2.09c.83-10.75 6.31-25.45 15.91-46 12.06-26 24.32-43.67 32.46-43.44 2.6.06 5.69 3.14 5.69 7.6 0 10.76-9.49 26.88-17.78 44.43-.83 1.76-4.61 10.08-4.61 10.08l5.42 2.34c1.78-3 5.46-10.17 6-11.37l4.06 9c-8.65 7.36-16.26 24.66-16.26 38.32 0 10 4.46 16.19 11 18.29 6 1.85 11.8.07 16.26-5.18 1.06 6.31 5.25 11.75 13.38 11.75 7.2 0 11.91-4.13 15.49-11.22 1.3 33.06-26 57.73-54.57 57.73" fill="#fff"/><path d="M150 113.09c-1.84 11-8.54 23.29-16.79 23.29-7.87 0-7.4-10.43-5.57-16.73 2.88-11.28 10.56-23.08 16.33-23.08 5.25 0 7.6 7.08 6 16.52" fill="#fff"/><path d="M122.17 168.38c-23.36 13.26-45.08 4.79-53.28-19.4l6.79-3.18c6.68 19.7 25.92 25.1 43.73 15.83zm-6.36-50.55a6.1 6.1 0 1 1-6.09-6.09 6.09 6.09 0 0 1 6.09 6.09m25.66 7.38a5.49 5.49 0 1 1-5.48-5.49 5.48 5.48 0 0 1 5.48 5.49M131.16 25.18a5.47 5.47 0 0 1-2.18-.43 5.37 5.37 0 0 1-1.76-1.19 5.7 5.7 0 0 1-1.22-1.78 5.61 5.61 0 0 1-.43-2.18 5.7 5.7 0 0 1 .43-2.19 5.61 5.61 0 0 1 1.18-1.76 5.53 5.53 0 0 1 1.82-1.19 5.38 5.38 0 0 1 2.2-.45 5.32 5.32 0 0 1 2.18.45 5.5 5.5 0 0 1 2.92 2.95 5.53 5.53 0 0 1 .44 2.19 5.44 5.44 0 0 1-.44 2.18 5.68 5.68 0 0 1-1.17 1.78 5.47 5.47 0 0 1-4 1.62zm0-1.07a4.37 4.37 0 0 0 1.75-.34 4.29 4.29 0 0 0 2.29-2.39 4.89 4.89 0 0 0 0-3.53 4.3 4.3 0 0 0-.91-1.44 4.5 4.5 0 0 0-1.38-1 4.48 4.48 0 0 0-3.47 0 4.59 4.59 0 0 0-1.4 1 4.49 4.49 0 0 0-.92 1.44 5 5 0 0 0 0 3.53 4.34 4.34 0 0 0 .92 1.43 4.08 4.08 0 0 0 1.38 1 4.36 4.36 0 0 0 1.74.3zm-1.93-7.36h2.17a2.44 2.44 0 0 1 .91.15 1.84 1.84 0 0 1 .62.4 1.26 1.26 0 0 1 .36.53 1.54 1.54 0 0 1 .11.59 1.83 1.83 0 0 1-.27 1 1.68 1.68 0 0 1-.83.66l1.38 2.34h-1.22l-1.26-2.19h-.9v2.17h-1.07zm2.13 2.61a1 1 0 0 0 .72-.24.89.89 0 0 0 .22-.64.79.79 0 0 0-.24-.63 1.22 1.22 0 0 0-.77-.2h-1v1.71z" fill="#1d1d1b"/></svg>